<svg xmlns="http://www.w3.org/2000/svg" version="1.1" xmlns:xlink="http://www.w3.org/1999/xlink" xmlns:svgjs="http://svgjs.dev/svgjs" width="1000" height="999" viewBox="0 0 1000 999"><g transform="matrix(1,0,0,1,-0.215743440233382,-0.21552769679306039)"><svg viewBox="0 0 343 343" data-background-color="#c8c8c8" preserveAspectRatio="xMidYMid meet" height="999" width="1000" xmlns="http://www.w3.org/2000/svg" xmlns:xlink="http://www.w3.org/1999/xlink"><defs></defs><g id="tight-bounds" transform="matrix(1,0,0,1,0.0740000000000407,0.07400000000001228)"><svg viewBox="0 0 342.85155851775386 342.85155851775386" height="342.85155851775386" width="342.85155851775386"><g><svg></svg></g><g><svg viewBox="0 0 342.85155851775386 342.85155851775386" height="342.85155851775386" width="342.85155851775386"><g><path d="M0 171.426c0-94.676 76.75-171.426 171.426-171.426 94.676 0 171.426 76.75 171.426 171.426 0 94.676-76.75 171.426-171.426 171.426-94.676 0-171.426-76.75-171.426-171.426zM171.426 329.545c87.327 0 158.119-70.792 158.119-158.119 0-87.327-70.792-158.119-158.119-158.12-87.327 0-158.119 70.792-158.12 158.12 0 87.327 70.792 158.119 158.12 158.119z" data-fill-palette-color="tertiary" fill="#6b7280" stroke="transparent"></path><ellipse rx="164.56874808852186" ry="164.56874808852186" cx="171.42577925887693" cy="171.42577925887693" fill="#6b7280" stroke="transparent" stroke-width="0" fill-opacity="1" data-fill-palette-color="tertiary"></ellipse></g><g transform="matrix(1,0,0,1,64.84655864529837,97.64983291433612)"><svg viewBox="0 0 213.1584412271571 147.55189268908163" height="147.55189268908163" width="213.1584412271571"><g><svg viewBox="0 0 213.1584412271571 147.55189268908163" height="147.55189268908163" width="213.1584412271571"><g><svg viewBox="0 0 213.1584412271571 147.55189268908163" height="147.55189268908163" width="213.1584412271571"><g><svg viewBox="0 0 213.1584412271571 147.55189268908163" height="147.55189268908163" width="213.1584412271571"><g><svg viewBox="0 0 213.1584412271571 147.55189268908163" height="147.55189268908163" width="213.1584412271571"><g><svg viewBox="0 0 213.1584412271571 147.55189268908163" height="147.55189268908163" width="213.1584412271571"><g transform="matrix(1,0,0,1,0,0)"><svg width="213.1584412271571" viewBox="2.5999999046325684 -29.350000381469727 42.400001525878906 29.350000381469727" height="147.55189268908163" data-palette-color="#c8c8c8"><path d="M9.4 0L2.6 0 2.6-28.9 9.4-28.9 9.4-26Q10.95-27.5 12.68-28.43 14.4-29.35 16.4-29.35L16.4-29.35Q18.2-29.35 19.25-28.48 20.3-27.6 20.8-26.15 21.3-24.7 21.3-23L21.3-23 21.3 0 14.5 0 14.5-21.65Q14.5-22.95 14.1-23.65 13.7-24.35 12.55-24.35L12.55-24.35Q11.85-24.35 11.03-23.95 10.2-23.55 9.4-22.95L9.4-22.95 9.4 0ZM33.1 0L26.3 0 26.3-28.9 33.1-28.9 33.1-26Q34.65-27.5 36.37-28.43 38.1-29.35 40.1-29.35L40.1-29.35Q41.9-29.35 42.95-28.48 44-27.6 44.5-26.15 45-24.7 45-23L45-23 45 0 38.2 0 38.2-21.65Q38.2-22.95 37.8-23.65 37.4-24.35 36.25-24.35L36.25-24.35Q35.55-24.35 34.72-23.95 33.9-23.55 33.1-22.95L33.1-22.95 33.1 0Z" opacity="1" transform="matrix(1,0,0,1,0,0)" fill="#c8c8c8" class="undefined-text-0" data-fill-palette-color="quaternary" id="text-0"></path></svg></g></svg></g></svg></g></svg></g><g></g></svg></g></svg></g></svg></g></svg></g></svg><rect width="342.85155851775386" height="342.85155851775386" fill="none" stroke="none" visibility="hidden"></rect></g></svg></g></svg>